<svg xmlns="http://www.w3.org/2000/svg" aria-hidden="true" style="position:absolute;width:0;height:0;overflow:hidden">
  <defs>
    <!-- Heder -->

    <!-- Hero -->
    <symbol id="icon-hero-button" viewBox="0 0 48 32">
      <path d="M40.165 18.935a64.374 64.374 0 0 1-.506-5.235c-.033-1.56.026-2.91.178-4.05L1.897 31.555.102 28.446l37.94-21.905c-1.092-.488-2.305-1.137-3.639-1.945a73.191 73.191 0 0 1-4.238-2.981L32.443.3c4.813 2.024 9.215 3.036 13.206 3.035l.769 1.332c-2.025 3.406-3.35 7.724-3.975 12.954l-2.278 1.315z"/>
    </symbol>
    <symbol id="icon-Star-10" viewBox="0 0 32 32">
      <path d="M15.434.333a.653.653 0 0 1 1.133 0l1.84 3.203c.19.33.621.429.935.214l3.081-2.107a.653.653 0 0 1 1.02.496l.239 3.642a.653.653 0 0 0 .754.602l3.69-.584c.504-.08.9.423.706.894l-1.386 3.36a.653.653 0 0 0 .421.876l3.555 1.036a.653.653 0 0 1 .252 1.115l-2.731 2.433a.654.654 0 0 0 0 .975l2.731 2.433a.653.653 0 0 1-.252 1.115l-3.555 1.036a.653.653 0 0 0-.421.876l1.386 3.36a.653.653 0 0 1-.706.894l-3.69-.584a.653.653 0 0 0-.754.602l-.239 3.642a.653.653 0 0 1-1.02.496l-3.081-2.107a.653.653 0 0 0-.935.214l-1.84 3.203a.653.653 0 0 1-1.133 0l-1.84-3.203a.653.653 0 0 0-.935-.214l-3.081 2.107a.652.652 0 0 1-1.02-.496l-.239-3.642a.653.653 0 0 0-.754-.602l-3.69.584a.653.653 0 0 1-.706-.894l1.386-3.36a.653.653 0 0 0-.421-.876L.579 20.036a.653.653 0 0 1-.252-1.115l2.731-2.433a.654.654 0 0 0 0-.975L.327 13.08a.653.653 0 0 1 .252-1.115l3.555-1.036a.653.653 0 0 0 .421-.876l-1.386-3.36a.653.653 0 0 1 .706-.894l3.69.584c.38.06.729-.219.754-.602l.239-3.642a.653.653 0 0 1 1.02-.496l3.081 2.107a.653.653 0 0 0 .935-.214l1.84-3.203z"/>
    </symbol>
    <!-- About use -->

    <!-- Our collection -->

    <!-- Your order -->

    <!-- Testimonials -->

    <!-- Footer -->
  </defs>
</svg>
